<svg xmlns="http://www.w3.org/2000/svg" viewBox="0 0 1000 1000"><defs><style>.cls-1{stroke:#fff;stroke-miterlimit:10;stroke-width:30px;}</style></defs><title>Groups-Dark</title><g id="Layer_1" data-name="Layer 1"><circle cx="705.18" cy="311.56" r="126.87"/><path class="cls-1" d="M789.21,438.47a126.83,126.83,0,0,1-168.07,0h-.61c-105,0-190.16,85.14-190.16,190.16V751a24.56,24.56,0,0,0,24.56,24.55h497a27.11,27.11,0,0,0,27.11-27.11V629.17C979.05,524.13,894.13,438.94,789.21,438.47Z"/><circle cx="304.81" cy="431.03" r="126.87"/><path class="cls-1" d="M388.83,556.94a126.85,126.85,0,0,1-168.06,0h-.61C115.14,556.93,30,642.06,30,747.08V869.44A24.55,24.55,0,0,0,54.56,894h497a27.12,27.12,0,0,0,27.12-27.12V747.64C578.68,642.6,493.76,557.41,388.83,556.94Z"/></g></svg>