<svg id="Layer_1" data-name="Layer 1" xmlns="http://www.w3.org/2000/svg" viewBox="0 0 500 500"><defs><style>.cls-1{fill:#fff;}</style></defs><title>Artboard 1</title><path class="cls-1" d="M183.82,87A102.84,102.84,0,1,1,81,189.81,102.95,102.95,0,0,1,183.82,87m0-70A172.84,172.84,0,1,0,356.65,189.81,172.84,172.84,0,0,0,183.82,17Z"/><path class="cls-1" d="M327.63,291.32a20.17,20.17,0,0,0-15,6.66L291.9,320.89a18.88,18.88,0,0,0,1.33,26.67L437.87,478.43a14.63,14.63,0,0,0,20.66-1l27.91-30.84a13.79,13.79,0,0,0-1-19.47L341.19,296.55a20.15,20.15,0,0,0-13.56-5.23Z"/></svg>